<svg width="34" height="34" viewBox="0 0 34 34" fill="none" xmlns="http://www.w3.org/2000/svg">
<path fill-rule="evenodd" clip-rule="evenodd" d="M16.9999 0.333008C26.1999 0.333008 33.6666 7.81634 33.6666 16.9997L33.6602 17.466C33.413 26.4506 26.044 33.6663 16.9999 33.6663C7.81659 33.6663 0.333252 26.1997 0.333252 16.9997C0.333252 7.81634 7.81659 0.333008 16.9999 0.333008ZM10.3333 20.2997C10.8333 20.783 11.6166 20.783 12.0999 20.283L16.9999 15.3663L21.8999 20.283C22.3833 20.783 23.1833 20.783 23.6666 20.2997C24.1666 19.7997 24.1666 19.0163 23.6666 18.533L17.8833 12.7163C17.6499 12.483 17.3333 12.3497 16.9999 12.3497C16.6666 12.3497 16.3499 12.483 16.1166 12.7163L10.3333 18.533C10.0833 18.7663 9.96658 19.083 9.96658 19.3997C9.96658 19.733 10.0833 20.0497 10.3333 20.2997Z" fill="#2F80ED"/>
</svg>
