<svg width="27" height="22" viewBox="0 0 27 22" fill="none" xmlns="http://www.w3.org/2000/svg">
<path fill-rule="evenodd" clip-rule="evenodd" d="M12.0381 0.418314C12.5027 0.893 12.5027 1.65992 12.0349 2.13138L6.72607 7.49661L6.6035 7.60499C6.13467 7.96613 5.46554 7.92851 5.0397 7.49338C4.80743 7.25604 4.69129 6.94766 4.69129 6.63927C4.69129 6.32766 4.80743 6.01766 5.04288 5.78032L10.3502 0.415085L10.4728 0.307076C10.9418 -0.0528277 11.6123 -0.0153336 12.0381 0.418314ZM25.5814 9.79827C26.1695 9.87303 26.625 10.3827 26.625 10.9998C26.625 11.6682 26.0905 12.2107 25.4318 12.2107H4.45727L12.0348 19.8686L12.142 19.9923C12.4993 20.4659 12.4638 21.1466 12.038 21.5817C11.5734 22.0548 10.8177 22.0564 10.3516 21.5849L0.726589 11.8571L0.620449 11.7353C0.458963 11.5223 0.375 11.2621 0.375 10.9998C0.375 10.8431 0.405226 10.6865 0.465681 10.538C0.650227 10.0843 1.08455 9.78883 1.56818 9.78883H25.4318L25.5814 9.79827Z" fill="#828282"/>
</svg>
