<svg width="54" height="44" viewBox="0 0 54 44" fill="none" xmlns="http://www.w3.org/2000/svg">
<path fill-rule="evenodd" clip-rule="evenodd" d="M29.9238 0.836629C28.9947 1.786 28.9947 3.31985 29.9301 4.26276L40.5479 14.9932L40.793 15.21C41.7307 15.9323 43.0689 15.857 43.9206 14.9868C44.3851 14.5121 44.6174 13.8953 44.6174 13.2785C44.6174 12.6553 44.3851 12.0353 43.9142 11.5606L33.2997 0.83017L33.0545 0.614152C32.1164 -0.105655 30.7754 -0.0306673 29.9238 0.836629ZM2.83716 19.5965C1.66094 19.7461 0.75 20.7655 0.75 21.9995C0.75 23.3364 1.81909 24.4214 3.13636 24.4214H45.0855L29.9305 39.7372L29.7161 39.9846C29.0015 40.9317 29.0724 42.2931 29.9241 43.1634C30.8532 44.1095 32.3645 44.1127 33.2968 43.1698L52.5468 23.7142L52.7591 23.4706C53.0821 23.0445 53.25 22.5243 53.25 21.9995C53.25 21.6863 53.1895 21.3731 53.0686 21.076C52.6995 20.1686 51.8309 19.5777 50.8636 19.5777H3.13636L2.83716 19.5965Z" fill="#2F80ED"/>
</svg>
