<svg width="34" height="34" viewBox="0 0 34 34" fill="none" xmlns="http://www.w3.org/2000/svg">
<path fill-rule="evenodd" clip-rule="evenodd" d="M17.0002 33.6663C7.80016 33.6663 0.333496 26.183 0.333496 16.9997C0.333496 7.79967 7.80016 0.333008 17.0002 0.333008C26.1835 0.333008 33.6668 7.79967 33.6668 16.9997C33.6668 26.183 26.1835 33.6663 17.0002 33.6663ZM23.6668 13.6997C23.1668 13.2163 22.3835 13.2163 21.9002 13.7163L17.0002 18.633L12.1002 13.7163C11.6168 13.2163 10.8168 13.2163 10.3335 13.6997C9.8335 14.1997 9.8335 14.983 10.3335 15.4663L16.1168 21.283C16.3502 21.5163 16.6668 21.6497 17.0002 21.6497C17.3335 21.6497 17.6502 21.5163 17.8835 21.283L23.6668 15.4663C23.9168 15.233 24.0335 14.9163 24.0335 14.5997C24.0335 14.2663 23.9168 13.9497 23.6668 13.6997Z" fill="#2F80ED"/>
</svg>
