<svg width="15" height="13" viewBox="0 0 15 13" fill="none" xmlns="http://www.w3.org/2000/svg">
<path d="M0 1.58337C0 0.893018 0.559644 0.333374 1.25 0.333374H13.75C14.4404 0.333374 15 0.893018 15 1.58337C15 2.27373 14.4404 2.83337 13.75 2.83337H1.25C0.559644 2.83337 0 2.27373 0 1.58337Z" fill="#2F80ED"/>
<path d="M0 6.58337C0 5.89302 0.559644 5.33337 1.25 5.33337H10.4167C11.107 5.33337 11.6667 5.89302 11.6667 6.58337C11.6667 7.27373 11.107 7.83337 10.4167 7.83337H1.25C0.559644 7.83337 0 7.27373 0 6.58337Z" fill="#2F80ED"/>
<path d="M1.25 10.3334C0.559644 10.3334 0 10.893 0 11.5834C0 12.2737 0.559644 12.8334 1.25 12.8334H7.08333C7.77369 12.8334 8.33333 12.2737 8.33333 11.5834C8.33333 10.893 7.77369 10.3334 7.08333 10.3334H1.25Z" fill="#2F80ED"/>
</svg>
