<svg width="46" height="46" viewBox="0 0 46 46" fill="none" xmlns="http://www.w3.org/2000/svg">
<path d="M26.8333 3.83301H11.5C10.4833 3.83301 9.50827 4.23688 8.78938 4.95577C8.07049 5.67465 7.66663 6.64968 7.66663 7.66634V38.333C7.66663 39.3497 8.07049 40.3247 8.78938 41.0436C9.50827 41.7625 10.4833 42.1663 11.5 42.1663H34.5C35.5166 42.1663 36.4916 41.7625 37.2105 41.0436C37.9294 40.3247 38.3333 39.3497 38.3333 38.333V15.333L26.8333 3.83301Z" stroke="#2F80ED" stroke-width="3" stroke-linecap="round" stroke-linejoin="round"/>
<path d="M26.8334 3.83301V15.333H38.3334" stroke="#2F80ED" stroke-width="3" stroke-linecap="round" stroke-linejoin="round"/>
<path d="M30.6667 24.917H15.3334" stroke="#2F80ED" stroke-width="3" stroke-linecap="round" stroke-linejoin="round"/>
<path d="M30.6667 32.583H15.3334" stroke="#2F80ED" stroke-width="3" stroke-linecap="round" stroke-linejoin="round"/>
<path d="M19.1667 17.25H17.25H15.3334" stroke="#2F80ED" stroke-width="3" stroke-linecap="round" stroke-linejoin="round"/>
</svg>
