<svg width="49" height="48" viewBox="0 0 49 48" fill="none" xmlns="http://www.w3.org/2000/svg">
<g clip-path="url(#clip0_185_2128)">
<path d="M12.6715 47.8302C9.81697 47.7004 8.26628 47.2254 7.23487 46.8231C5.86821 46.291 4.89385 45.6576 3.86815 44.6333C2.84244 43.609 2.20761 42.6347 1.67835 41.268C1.27606 40.2366 0.801008 38.6859 0.671189 35.8313C0.528532 32.7456 0.5 31.8198 0.5 24.0021C0.5 16.1845 0.531385 15.2601 0.669763 12.1715C0.799581 9.31697 1.27748 7.76913 1.67693 6.73487C2.20904 5.36821 2.84386 4.39385 3.86672 3.36672C4.891 2.34244 5.86535 1.70618 7.23344 1.17693C8.26485 0.774631 9.81554 0.299581 12.6701 0.169763C15.7572 0.0285315 16.6845 0 24.4993 0C32.3169 0 33.2413 0.0313847 36.3299 0.169763C39.1845 0.299581 40.7323 0.777484 41.7666 1.17693C43.1332 1.70618 44.1076 2.34244 45.1333 3.36672C46.159 4.391 46.791 5.36678 47.3231 6.73344C47.7254 7.76485 48.2004 9.31554 48.3302 12.1701C48.4715 15.2587 48.5 16.1831 48.5 24.0007C48.5 31.8155 48.4715 32.7428 48.3302 35.8313C48.2004 38.6859 47.7225 40.2366 47.3231 41.268C46.791 42.6347 46.1576 43.609 45.1333 44.6333C44.109 45.6576 43.1332 46.291 41.7666 46.8231C40.7351 47.2254 39.1845 47.7004 36.3299 47.8302C33.2442 47.9715 32.3169 48 24.4993 48C16.6845 48 15.7572 47.9729 12.6715 47.8302Z" fill="url(#paint0_radial_185_2128)"/>
<path d="M12.6715 47.8302C9.81697 47.7004 8.26628 47.2254 7.23487 46.8231C5.86821 46.291 4.89385 45.6576 3.86815 44.6333C2.84244 43.609 2.20761 42.6347 1.67835 41.268C1.27606 40.2366 0.801008 38.6859 0.671189 35.8313C0.528532 32.7456 0.5 31.8198 0.5 24.0021C0.5 16.1845 0.531385 15.2601 0.669763 12.1715C0.799581 9.31697 1.27748 7.76913 1.67693 6.73487C2.20904 5.36821 2.84386 4.39385 3.86672 3.36672C4.891 2.34244 5.86535 1.70618 7.23344 1.17693C8.26485 0.774631 9.81554 0.299581 12.6701 0.169763C15.7572 0.0285315 16.6845 0 24.4993 0C32.3169 0 33.2413 0.0313847 36.3299 0.169763C39.1845 0.299581 40.7323 0.777484 41.7666 1.17693C43.1332 1.70618 44.1076 2.34244 45.1333 3.36672C46.159 4.391 46.791 5.36678 47.3231 6.73344C47.7254 7.76485 48.2004 9.31554 48.3302 12.1701C48.4715 15.2587 48.5 16.1831 48.5 24.0007C48.5 31.8155 48.4715 32.7428 48.3302 35.8313C48.2004 38.6859 47.7225 40.2366 47.3231 41.268C46.791 42.6347 46.1576 43.609 45.1333 44.6333C44.109 45.6576 43.1332 46.291 41.7666 46.8231C40.7351 47.2254 39.1845 47.7004 36.3299 47.8302C33.2442 47.9715 32.3169 48 24.4993 48C16.6845 48 15.7572 47.9729 12.6715 47.8302Z" fill="url(#paint1_radial_185_2128)"/>
<path d="M18.6069 24.1017C18.6069 20.819 21.2673 18.1572 24.55 18.1572C27.8327 18.1572 30.4945 20.819 30.4945 24.1017C30.4945 27.3844 27.8327 30.0463 24.55 30.0463C21.2673 30.0463 18.6069 27.3844 18.6069 24.1017ZM15.3933 24.1017C15.3933 29.1589 19.4928 33.2583 24.55 33.2583C29.6072 33.2583 33.7066 29.1589 33.7066 24.1017C33.7066 19.0445 29.6072 14.9451 24.55 14.9451C19.4928 14.9451 15.3935 19.0442 15.3935 24.1017H15.3933ZM31.9294 14.582C31.9292 15.0053 32.0545 15.419 32.2895 15.771C32.5245 16.123 32.8586 16.3974 33.2495 16.5595C33.6405 16.7217 34.0707 16.7642 34.4858 16.6818C34.901 16.5994 35.2823 16.3958 35.5817 16.0966C35.8811 15.7975 36.0851 15.4163 36.1678 15.0012C36.2505 14.5861 36.2083 14.1559 36.0465 13.7648C35.8847 13.3737 35.6106 13.0394 35.2588 12.8041C34.907 12.5689 34.4933 12.4432 34.0701 12.443H34.0692C33.5019 12.4433 32.9579 12.6687 32.5567 13.0698C32.1555 13.4708 31.9298 14.0147 31.9294 14.582ZM17.3458 38.6168C15.6072 38.5377 14.6622 38.2481 14.0343 38.0034C13.2017 37.6793 12.6077 37.2933 11.9831 36.6696C11.3586 36.0459 10.972 35.4524 10.6493 34.6199C10.4045 33.9922 10.1149 33.0469 10.0358 31.3083C9.94939 29.4287 9.93213 28.8641 9.93213 24.102C9.93213 19.34 9.95082 18.7769 10.0358 16.8957C10.115 15.1571 10.4068 14.2137 10.6493 13.5842C10.9734 12.7516 11.3594 12.1576 11.9831 11.533C12.6068 10.9085 13.2003 10.5219 14.0343 10.1992C14.6619 9.95437 15.6072 9.66478 17.3458 9.58575C19.2254 9.4993 19.7901 9.48204 24.55 9.48204C29.3099 9.48204 29.8751 9.50044 31.7563 9.58603C33.4949 9.66521 34.4383 9.95694 35.0678 10.1995C35.9004 10.5222 36.4944 10.9096 37.119 11.5333C37.7435 12.157 38.1287 12.7519 38.4528 13.5844C38.6976 14.2121 38.9872 15.1574 39.0662 16.8959C39.1527 18.7772 39.1699 19.3402 39.1699 24.1023C39.1699 28.8643 39.1527 29.4274 39.0662 31.3086C38.9871 33.0472 38.696 33.9922 38.4528 34.6201C38.1287 35.4527 37.7426 36.0467 37.119 36.6698C36.4953 37.293 35.9004 37.6796 35.0678 38.0037C34.4401 38.2485 33.4949 38.5381 31.7563 38.6171C29.8767 38.7036 29.312 38.7208 24.55 38.7208C19.7879 38.7208 19.2248 38.7036 17.3458 38.6171V38.6168ZM17.1981 6.37752C15.2998 6.46397 14.0026 6.76498 12.8697 7.20579C11.6972 7.66101 10.7033 8.27173 9.71087 9.26263C8.7184 10.2535 8.10926 11.2476 7.65404 12.4215C7.21322 13.5551 6.91222 14.8515 6.82577 16.7499C6.73789 18.6512 6.71777 19.2591 6.71777 24.1017C6.71777 28.9444 6.73789 29.5522 6.82577 31.4536C6.91222 33.3521 7.21322 34.6484 7.65404 35.7819C8.10926 36.9544 8.71855 37.9503 9.71087 38.9408C10.7032 39.9313 11.6958 40.5411 12.8697 40.9976C14.0047 41.4385 15.2998 41.7395 17.1981 41.8259C19.1004 41.9124 19.7073 41.9339 24.55 41.9339C29.3926 41.9339 30.0005 41.9138 31.9018 41.8259C33.8003 41.7395 35.0966 41.4385 36.2302 40.9976C37.4027 40.5411 38.3966 39.9317 39.3891 38.9408C40.3815 37.9499 40.9894 36.9544 41.4459 35.7819C41.8867 34.6484 42.1891 33.3519 42.2742 31.4536C42.3606 29.5508 42.3807 28.9444 42.3807 24.1017C42.3807 19.2591 42.3606 18.6512 42.2742 16.7499C42.1877 14.8514 41.8867 13.5543 41.4459 12.4215C40.9894 11.249 40.38 10.2551 39.3891 9.26263C38.3982 8.27016 37.4027 7.66101 36.2316 7.20579C35.0966 6.76498 33.8002 6.46255 31.9033 6.37752C30.0016 6.29064 29.394 6.26953 24.5521 6.26953C19.7102 6.26953 19.1012 6.28965 17.1988 6.37752" fill="white"/>
</g>
<defs>
<radialGradient id="paint0_radial_185_2128" cx="0" cy="0" r="1" gradientUnits="userSpaceOnUse" gradientTransform="translate(3.60651 46.9485) scale(60.9422)">
<stop offset="0.09" stop-color="#FA8F21"/>
<stop offset="0.78" stop-color="#D82D7E"/>
</radialGradient>
<radialGradient id="paint1_radial_185_2128" cx="0" cy="0" r="1" gradientUnits="userSpaceOnUse" gradientTransform="translate(33.7479 45.4072) scale(53.6297)">
<stop offset="0.64" stop-color="#8C3AAA" stop-opacity="0"/>
<stop offset="1" stop-color="#8C3AAA"/>
</radialGradient>
<clipPath id="clip0_185_2128">
<rect width="48" height="48" fill="white" transform="translate(0.5)"/>
</clipPath>
</defs>
</svg>
