<svg width="49" height="48" viewBox="0 0 49 48" fill="none" xmlns="http://www.w3.org/2000/svg">
<g clip-path="url(#clip0_244_110)">
<path d="M48.5 24C48.5 37.26 37.76 48 24.5 48C11.24 48 0.5 37.26 0.5 24C0.5 10.74 11.24 0 24.5 0C37.76 0 48.5 10.74 48.5 24Z" fill="url(#paint0_linear_244_110)"/>
<path d="M20.0999 34.9996C19.3199 34.9996 19.4599 34.6996 19.1799 33.9596L16.8999 26.4396L31.0599 17.5996L32.7199 18.0396L31.3399 21.7996L20.0999 34.9996Z" fill="#C8DAEA"/>
<path d="M20.1001 34.9994C20.7001 34.9994 20.9601 34.7194 21.3001 34.3994C21.8201 33.8994 28.5001 27.3994 28.5001 27.3994L24.4001 26.3994L20.6001 28.7994L20.1001 34.7994V34.9994Z" fill="#A9C9DD"/>
<path d="M20.4999 28.8801L30.1799 36.0201C31.2799 36.6201 32.0799 36.3201 32.3599 35.0001L36.2999 16.4401C36.6999 14.8201 35.6799 14.1001 34.6199 14.5801L11.4999 23.5001C9.91988 24.1401 9.93988 25.0201 11.2199 25.4001L17.1599 27.2601L30.8999 18.6001C31.5399 18.2001 32.1399 18.4201 31.6599 18.8601L20.4999 28.8801Z" fill="url(#paint1_linear_244_110)"/>
</g>
<defs>
<linearGradient id="paint0_linear_244_110" x1="31.534" y1="7.586" x2="19.534" y2="35.5856" gradientUnits="userSpaceOnUse">
<stop stop-color="#37AEE2"/>
<stop offset="1" stop-color="#1E96C8"/>
</linearGradient>
<linearGradient id="paint1_linear_244_110" x1="26.2981" y1="24.7511" x2="31.2981" y2="32.7511" gradientUnits="userSpaceOnUse">
<stop stop-color="#EFF7FC"/>
<stop offset="1" stop-color="white"/>
</linearGradient>
<clipPath id="clip0_244_110">
<rect width="48" height="48" fill="white" transform="translate(0.5)"/>
</clipPath>
</defs>
</svg>
