<svg width="48" height="48" viewBox="0 0 48 48" fill="none" xmlns="http://www.w3.org/2000/svg">
<g clip-path="url(#clip0_244_101)">
<path d="M47.9972 35.8666C47.9972 36.1294 47.9892 36.6994 47.9734 37.1397C47.9348 38.217 47.8494 39.6071 47.7202 40.2405C47.5261 41.1923 47.2331 42.0908 46.8511 42.8385C46.3991 43.7231 45.8225 44.5155 45.1374 45.1994C44.4538 45.8819 43.6621 46.4562 42.7789 46.9064C42.0272 47.2894 41.1231 47.5826 40.1659 47.7758C39.5388 47.9025 38.159 47.9862 37.0886 48.0243C36.6479 48.04 36.0778 48.048 35.816 48.048L12.1803 48.0442C11.9175 48.0442 11.3476 48.0361 10.9073 48.0203C9.82998 47.9817 8.43986 47.8963 7.80643 47.7672C6.85459 47.573 5.95614 47.28 5.20839 46.898C4.32376 46.446 3.53143 45.8694 2.84757 45.1843C2.16507 44.5006 1.59076 43.7091 1.14062 42.8258C0.757461 42.0741 0.464305 41.17 0.271039 40.2128C0.144477 39.5857 0.060711 38.206 0.0226016 37.1355C0.00694532 36.6948 -0.000976562 36.1247 -0.000976562 35.8629L0.00277344 12.2273C0.00277344 11.9644 0.0107891 11.3945 0.026586 10.9542C0.0652579 9.87685 0.150617 8.48673 0.279758 7.85335C0.473867 6.90151 0.766836 6.00305 1.14891 5.25526C1.60093 4.37068 2.17754 3.5783 2.86262 2.89444C3.54624 2.21199 4.33787 1.63763 5.22114 1.18745C5.97287 0.804383 6.87695 0.511227 7.83419 0.317961C8.46123 0.191352 9.841 0.107586 10.9114 0.0695234C11.3522 0.0538203 11.9223 0.0458984 12.184 0.0458984L35.8197 0.0496953C36.0826 0.0496953 36.6525 0.0577109 37.0928 0.0735078C38.1701 0.11218 39.5602 0.197539 40.1937 0.32668C41.1455 0.520789 42.0439 0.813758 42.7917 1.19584C43.6763 1.64785 44.4686 2.22446 45.1525 2.90954C45.8349 3.59316 46.4093 4.38474 46.8594 5.26805C47.2426 6.01979 47.5357 6.92382 47.729 7.88105C47.8556 8.50815 47.9393 9.88787 47.9774 10.9583C47.9931 11.3991 48.0011 11.9692 48.0011 12.231L47.9972 35.8666Z" fill="url(#paint0_linear_244_101)"/>
<path d="M36.7172 11.4019C33.4674 8.14942 29.1456 6.3573 24.5408 6.35547C15.0532 6.35547 7.33147 14.0743 7.32768 23.562C7.32646 26.5947 8.11907 29.5551 9.62535 32.1646L7.18335 41.0815L16.3083 38.6887C18.8225 40.0595 21.6531 40.782 24.534 40.7832H24.5411C34.0277 40.7832 41.7502 33.0634 41.754 23.5757C41.7559 18.9778 39.9671 14.6545 36.7172 11.4019ZM24.5411 37.877H24.5352C21.968 37.876 19.4501 37.1866 17.2535 35.8834L16.731 35.5735L11.3161 36.9935L12.7615 31.7157L12.4212 31.1746C10.9891 28.8975 10.2327 26.2654 10.2338 23.5631C10.2369 15.6774 16.655 9.26172 24.5466 9.26172C28.3679 9.26317 31.9601 10.7529 34.6612 13.4562C37.3624 16.1595 38.8492 19.753 38.8477 23.5746C38.8447 31.461 32.4266 37.877 24.5411 37.877ZM32.3887 27.1653C31.9585 26.9501 29.844 25.9099 29.4497 25.7665C29.0555 25.6229 28.7688 25.5512 28.482 25.9817C28.1954 26.4121 27.3711 27.3806 27.1201 27.6675C26.8693 27.9545 26.6184 27.9904 26.1883 27.7751C25.7582 27.5599 24.3724 27.1059 22.7296 25.6411C21.4511 24.5012 20.5878 23.093 20.3369 22.6625C20.0861 22.2321 20.3103 21.9994 20.5256 21.785C20.719 21.5924 20.9557 21.2829 21.1707 21.0318C21.3857 20.7808 21.4574 20.6013 21.6008 20.3144C21.7442 20.0275 21.6725 19.7763 21.5649 19.5611C21.4574 19.3459 20.5972 17.2296 20.2388 16.3688C19.8898 15.5304 19.5351 15.6438 19.2711 15.6306C19.0205 15.6182 18.7335 15.6155 18.4468 15.6155C18.1601 15.6155 17.6941 15.7231 17.2999 16.1536C16.9057 16.584 15.7946 17.6242 15.7946 19.7405C15.7946 21.8567 17.3357 23.9013 17.5508 24.1882C17.7659 24.4752 20.5836 28.8181 24.898 30.6805C25.9242 31.1235 26.7253 31.388 27.35 31.5862C28.3803 31.9134 29.3179 31.8672 30.059 31.7566C30.8853 31.6331 32.6036 30.7165 32.9621 29.7121C33.3205 28.7077 33.3205 27.8469 33.2129 27.6676C33.1054 27.4882 32.8187 27.3806 32.3887 27.1653Z" fill="white"/>
</g>
<defs>
<linearGradient id="paint0_linear_244_101" x1="24" y1="0.0458984" x2="24" y2="48.048" gradientUnits="userSpaceOnUse">
<stop stop-color="#61FD7D"/>
<stop offset="1" stop-color="#2BB826"/>
</linearGradient>
<clipPath id="clip0_244_101">
<rect width="48" height="48" fill="white"/>
</clipPath>
</defs>
</svg>
