<svg width="345" height="140" viewBox="0 0 345 140" fill="none" xmlns="http://www.w3.org/2000/svg">
<path d="M29.968 110.944H24.784V124H14.8V89.568H24.784V102.944H30.16L39.504 89.568H50.128L38.096 106.08L50.96 124H39.184L29.968 110.944ZM88.8865 89.568V124H78.9025V97.76H68.0225L67.7025 103.84C67.5318 108.363 67.1052 112.117 66.4225 115.104C65.7398 118.091 64.6305 120.437 63.0945 122.144C61.5585 123.851 59.4252 124.704 56.6945 124.704C55.2438 124.704 53.5158 124.448 51.5105 123.936L52.0225 115.744C52.7052 115.829 53.1958 115.872 53.4945 115.872C54.9878 115.872 56.0972 115.339 56.8225 114.272C57.5905 113.163 58.1025 111.776 58.3585 110.112C58.6145 108.405 58.8065 106.165 58.9345 103.392L59.4465 89.568H88.8865ZM132.472 89.568V124H122.936V119.968C121.656 121.461 120.077 122.592 118.2 123.36C116.365 124.128 114.402 124.512 112.312 124.512C107.789 124.512 104.184 123.211 101.496 120.608C98.8502 118.005 97.5275 114.144 97.5275 109.024V89.568H107.512V107.552C107.512 113.099 109.837 115.872 114.488 115.872C116.92 115.872 118.861 115.104 120.312 113.568C121.762 111.989 122.488 109.664 122.488 106.592V89.568H132.472ZM175.588 124V103.392L165.284 120.672H161.06L151.012 103.328V124H141.988V89.568H152.42L163.428 109.472L175.14 89.568H184.484L184.612 124H175.588ZM228.927 89.568V124H219.391V120.032C216.916 123.019 213.332 124.512 208.639 124.512C205.396 124.512 202.452 123.787 199.807 122.336C197.204 120.885 195.156 118.816 193.663 116.128C192.17 113.44 191.423 110.325 191.423 106.784C191.423 103.243 192.17 100.128 193.663 97.44C195.156 94.752 197.204 92.6827 199.807 91.232C202.452 89.7813 205.396 89.056 208.639 89.056C213.034 89.056 216.468 90.4427 218.943 93.216V89.568H228.927ZM210.367 116.32C212.884 116.32 214.975 115.467 216.639 113.76C218.303 112.011 219.135 109.685 219.135 106.784C219.135 103.883 218.303 101.579 216.639 99.872C214.975 98.1227 212.884 97.248 210.367 97.248C207.807 97.248 205.695 98.1227 204.031 99.872C202.367 101.579 201.535 103.883 201.535 106.784C201.535 109.685 202.367 112.011 204.031 113.76C205.695 115.467 207.807 116.32 210.367 116.32ZM282.395 89.056C286.704 89.056 290.117 90.336 292.635 92.896C295.195 95.4133 296.475 99.2107 296.475 104.288V124H286.491V105.824C286.491 103.093 285.915 101.067 284.763 99.744C283.653 98.3787 282.053 97.696 279.963 97.696C277.616 97.696 275.76 98.464 274.395 100C273.029 101.493 272.347 103.733 272.347 106.72V124H262.363V105.824C262.363 100.405 260.187 97.696 255.835 97.696C253.531 97.696 251.696 98.464 250.331 100C248.965 101.493 248.283 103.733 248.283 106.72V124H238.299V89.568H247.835V93.536C249.115 92.0853 250.672 90.976 252.507 90.208C254.384 89.44 256.432 89.056 258.651 89.056C261.083 89.056 263.28 89.5467 265.243 90.528C267.205 91.4667 268.784 92.8533 269.979 94.688C271.387 92.896 273.157 91.5093 275.291 90.528C277.467 89.5467 279.835 89.056 282.395 89.056ZM339.927 89.568V124H330.391V120.032C327.916 123.019 324.332 124.512 319.639 124.512C316.396 124.512 313.452 123.787 310.807 122.336C308.204 120.885 306.156 118.816 304.663 116.128C303.17 113.44 302.423 110.325 302.423 106.784C302.423 103.243 303.17 100.128 304.663 97.44C306.156 94.752 308.204 92.6827 310.807 91.232C313.452 89.7813 316.396 89.056 319.639 89.056C324.034 89.056 327.468 90.4427 329.943 93.216V89.568H339.927ZM321.367 116.32C323.884 116.32 325.975 115.467 327.639 113.76C329.303 112.011 330.135 109.685 330.135 106.784C330.135 103.883 329.303 101.579 327.639 99.872C325.975 98.1227 323.884 97.248 321.367 97.248C318.807 97.248 316.695 98.1227 315.031 99.872C313.367 101.579 312.535 103.883 312.535 106.784C312.535 109.685 313.367 112.011 315.031 113.76C316.695 115.467 318.807 116.32 321.367 116.32Z" fill="black"/>
<path d="M39.232 29.744C35.392 27.5253 31.2747 26.096 26.88 25.456V62H16.512V25.456C12.1173 26.096 7.97867 27.5253 4.096 29.744L0.576 22C3.648 20.1653 6.976 18.7787 10.56 17.84C14.144 16.9013 17.8347 16.432 21.632 16.432C25.472 16.432 29.184 16.9013 32.768 17.84C36.3947 18.7787 39.7227 20.1653 42.752 22L39.232 29.744ZM62.9015 27.056C66.5708 27.056 69.7708 27.7813 72.5015 29.232C75.2322 30.6827 77.3442 32.752 78.8375 35.44C80.3308 38.128 81.0775 41.264 81.0775 44.848C81.0775 48.3467 80.3735 51.44 78.9655 54.128C77.5575 56.7733 75.5735 58.8427 73.0135 60.336C70.4535 61.7867 67.5095 62.512 64.1815 62.512C59.7868 62.512 56.3522 61.1253 53.8775 58.352V74.416H43.8935V44.912C43.8935 41.3707 44.6828 38.256 46.2615 35.568C47.8402 32.88 50.0588 30.7893 52.9175 29.296C55.7762 27.8027 59.1042 27.056 62.9015 27.056ZM62.4535 54.32C65.0562 54.32 67.1682 53.4453 68.7895 51.696C70.4108 49.9467 71.2215 47.664 71.2215 44.848C71.2215 41.9893 70.4108 39.6853 68.7895 37.936C67.1682 36.144 65.0562 35.248 62.4535 35.248C59.8508 35.248 57.7388 36.1227 56.1175 37.872C54.5388 39.6213 53.7495 41.9253 53.7495 44.784C53.7495 47.6427 54.5388 49.9467 56.1175 51.696C57.6962 53.4453 59.8082 54.32 62.4535 54.32ZM122.865 27.568V62H113.329V58.032C110.854 61.0187 107.27 62.512 102.577 62.512C99.3338 62.512 96.3898 61.7867 93.7445 60.336C91.1418 58.8853 89.0938 56.816 87.6005 54.128C86.1072 51.44 85.3605 48.3253 85.3605 44.784C85.3605 41.2427 86.1072 38.128 87.6005 35.44C89.0938 32.752 91.1418 30.6827 93.7445 29.232C96.3898 27.7813 99.3338 27.056 102.577 27.056C106.971 27.056 110.406 28.4427 112.881 31.216V27.568H122.865ZM104.305 54.32C106.822 54.32 108.913 53.4667 110.577 51.76C112.241 50.0107 113.073 47.6853 113.073 44.784C113.073 41.8827 112.241 39.5787 110.577 37.872C108.913 36.1227 106.822 35.248 104.305 35.248C101.745 35.248 99.6325 36.1227 97.9685 37.872C96.3045 39.5787 95.4725 41.8827 95.4725 44.784C95.4725 47.6853 96.3045 50.0107 97.9685 51.76C99.6325 53.4667 101.745 54.32 104.305 54.32ZM167.436 27.568V56.24C167.436 62.5547 165.793 67.248 162.508 70.32C159.223 73.392 154.423 74.928 148.108 74.928C144.78 74.928 141.623 74.5227 138.636 73.712C135.649 72.9013 133.175 71.728 131.212 70.192L135.18 63.024C136.631 64.2187 138.465 65.1573 140.684 65.84C142.903 66.5653 145.121 66.928 147.34 66.928C150.796 66.928 153.335 66.1387 154.956 64.56C156.62 63.024 157.452 60.6773 157.452 57.52V56.048C154.849 58.9067 151.223 60.336 146.572 60.336C143.415 60.336 140.513 59.6533 137.868 58.288C135.265 56.88 133.196 54.9173 131.66 52.4C130.124 49.8827 129.356 46.9813 129.356 43.696C129.356 40.4107 130.124 37.5093 131.66 34.992C133.196 32.4747 135.265 30.5333 137.868 29.168C140.513 27.76 143.415 27.056 146.572 27.056C151.564 27.056 155.361 28.6987 157.964 31.984V27.568H167.436ZM148.556 52.144C151.201 52.144 153.356 51.376 155.02 49.84C156.727 48.2613 157.58 46.2133 157.58 43.696C157.58 41.1787 156.727 39.152 155.02 37.616C153.356 36.0373 151.201 35.248 148.556 35.248C145.911 35.248 143.735 36.0373 142.028 37.616C140.321 39.152 139.468 41.1787 139.468 43.696C139.468 46.2133 140.321 48.2613 142.028 49.84C143.735 51.376 145.911 52.144 148.556 52.144ZM211.034 27.568V62H201.498V57.968C200.218 59.4613 198.639 60.592 196.762 61.36C194.927 62.128 192.965 62.512 190.874 62.512C186.351 62.512 182.746 61.2107 180.058 58.608C177.413 56.0053 176.09 52.144 176.09 47.024V27.568H186.074V45.552C186.074 51.0987 188.399 53.872 193.05 53.872C195.482 53.872 197.423 53.104 198.874 51.568C200.325 49.9893 201.05 47.664 201.05 44.592V27.568H211.034ZM259.334 53.808V69.552H250.054V62H220.55V27.568H230.47V53.808H244.358V27.568H254.342V53.808H259.334ZM299.597 27.568V62H290.061V57.968C288.781 59.4613 287.202 60.592 285.325 61.36C283.49 62.128 281.527 62.512 279.437 62.512C274.914 62.512 271.309 61.2107 268.621 58.608C265.975 56.0053 264.653 52.144 264.653 47.024V27.568H274.637V45.552C274.637 51.0987 276.962 53.872 281.613 53.872C284.045 53.872 285.986 53.104 287.437 51.568C288.887 49.9893 289.613 47.664 289.613 44.592V27.568H299.597ZM339.705 27.568V62H330.809V52.144H323.449L316.921 62H306.297L314.169 50.736C311.779 49.7973 309.945 48.4533 308.665 46.704C307.427 44.912 306.809 42.7573 306.809 40.24C306.809 36.1867 308.259 33.072 311.161 30.896C314.105 28.6773 318.137 27.568 323.257 27.568H339.705ZM323.449 35.696C321.315 35.696 319.694 36.08 318.585 36.848C317.518 37.616 316.985 38.8533 316.985 40.56C316.985 42.2667 317.497 43.5253 318.521 44.336C319.587 45.104 321.187 45.488 323.321 45.488H330.809V35.696H323.449Z" fill="black"/>
</svg>
