<svg width="277" height="67" viewBox="0 0 277 67" fill="none" xmlns="http://www.w3.org/2000/svg">
<path d="M88.3878 57.9733H85.2342V65.9528H79.1626V44.8986H85.2342V53.0801H88.5001L94.1901 44.8986H100.654L93.3371 54.9992L101.171 65.964H93.9993L88.3878 57.9845V57.9733Z" fill="black"/>
<path d="M124.234 44.8986V65.9528H118.162V49.904H111.541L111.35 53.6188C111.249 56.3797 110.991 58.6803 110.575 60.5097C110.16 62.339 109.487 63.7756 108.555 64.8193C107.624 65.863 106.322 66.3905 104.661 66.3905C103.774 66.3905 102.731 66.2334 101.507 65.9191L101.822 60.9137C102.237 60.9698 102.54 60.9923 102.719 60.9923C103.628 60.9923 104.302 60.6668 104.74 60.0159C105.211 59.3425 105.514 58.4896 105.671 57.4683C105.828 56.4245 105.94 55.0553 106.019 53.3607L106.333 44.9098H124.245L124.234 44.8986Z" fill="black"/>
<path d="M150.765 44.8986V65.9528H144.962V63.4838C144.188 64.3928 143.223 65.0887 142.078 65.56C140.967 66.0314 139.766 66.2671 138.498 66.2671C135.748 66.2671 133.549 65.4702 131.921 63.8766C130.316 62.2829 129.508 59.9261 129.508 56.7949V44.8986H135.58V55.8971C135.58 59.2864 136.994 60.9811 139.822 60.9811C141.304 60.9811 142.482 60.5097 143.369 59.567C144.255 58.6018 144.693 57.1765 144.693 55.3023V44.8874H150.765V44.8986Z" fill="black"/>
<path d="M176.993 65.964V53.3607L170.719 63.9327H168.149L162.032 53.327V65.964H156.544V44.9098H162.897L169.597 57.0867L176.723 44.9098H182.413L182.492 65.964H177.004H176.993Z" fill="black"/>
<path d="M209.461 44.8986V65.9528H203.658V63.5287C202.155 65.358 199.977 66.267 197.116 66.267C195.14 66.267 193.356 65.8181 191.74 64.9315C190.157 64.0449 188.912 62.7767 188.002 61.1382C187.093 59.4996 186.633 57.5917 186.633 55.4257C186.633 53.2597 187.093 51.3518 188.002 49.7132C188.912 48.0747 190.157 46.8065 191.74 45.9199C193.345 45.0333 195.14 44.5844 197.116 44.5844C199.787 44.5844 201.874 45.4373 203.389 47.132V44.8986H209.461ZM198.17 61.2616C199.697 61.2616 200.976 60.7341 201.986 59.6904C202.996 58.6242 203.501 57.1989 203.501 55.4257C203.501 53.6525 202.996 52.2384 201.986 51.1947C200.976 50.1285 199.697 49.5898 198.17 49.5898C196.644 49.5898 195.331 50.1285 194.321 51.1947C193.311 52.2384 192.806 53.6525 192.806 55.4257C192.806 57.1989 193.311 58.6242 194.321 59.6904C195.331 60.7341 196.622 61.2616 198.17 61.2616Z" fill="black"/>
<path d="M241.996 44.5844C244.622 44.5844 246.699 45.37 248.225 46.93C249.785 48.4675 250.559 50.7906 250.559 53.8994V65.9528H244.488V54.8421C244.488 53.1699 244.14 51.9354 243.433 51.1273C242.759 50.2968 241.783 49.8704 240.515 49.8704C239.089 49.8704 237.956 50.3417 237.125 51.2844C236.295 52.1935 235.88 53.5627 235.88 55.392V65.964H229.808V54.8533C229.808 51.5426 228.484 49.8816 225.835 49.8816C224.432 49.8816 223.321 50.3529 222.491 51.2957C221.66 52.2047 221.245 53.5739 221.245 55.4033V65.9752H215.173V44.9211H220.976V47.3452C221.75 46.4586 222.704 45.774 223.815 45.3139C224.96 44.8425 226.205 44.6068 227.552 44.6068C229.034 44.6068 230.369 44.9098 231.559 45.5046C232.748 46.077 233.714 46.93 234.443 48.0522C235.296 46.9524 236.373 46.1107 237.675 45.5046C239 44.9098 240.436 44.6068 241.996 44.6068V44.5844Z" fill="black"/>
<path d="M277 44.8986V65.9528H271.198V63.5287C269.694 65.358 267.517 66.267 264.655 66.267C262.68 66.267 260.895 65.8181 259.279 64.9315C257.697 64.0449 256.451 62.7767 255.542 61.1382C254.633 59.4996 254.184 57.5917 254.184 55.4257C254.184 53.2597 254.644 51.3518 255.542 49.7132C256.451 48.0747 257.697 46.8065 259.279 45.9199C260.884 45.0333 262.68 44.5844 264.655 44.5844C267.326 44.5844 269.414 45.4373 270.929 47.132V44.8986H277ZM265.71 61.2616C267.236 61.2616 268.516 60.7341 269.526 59.6904C270.536 58.6242 271.041 57.1989 271.041 55.4257C271.041 53.6525 270.536 52.2384 269.526 51.1947C268.516 50.1285 267.236 49.5898 265.71 49.5898C264.184 49.5898 262.871 50.1285 261.849 51.1947C260.839 52.2384 260.334 53.6525 260.334 55.4257C260.334 57.1989 260.839 58.6242 261.849 59.6904C262.859 60.7341 264.15 61.2616 265.71 61.2616Z" fill="black"/>
<path d="M108.421 6.67337C110.654 6.67337 112.596 7.12229 114.268 8.0089C115.929 8.89551 117.22 10.1637 118.129 11.8022C119.038 13.4408 119.487 15.3599 119.487 17.5596C119.487 19.7593 119.06 21.5886 118.196 23.2384C117.343 24.8545 116.131 26.1227 114.571 27.0317C113.011 27.9184 111.227 28.3673 109.195 28.3673C106.524 28.3673 104.426 27.5143 102.922 25.8197V35.6397H96.8501V17.5933C96.8501 15.4272 97.3327 13.5194 98.2866 11.8808C99.2518 10.2423 100.599 8.96285 102.338 8.04257C104.078 7.13351 106.098 6.67337 108.41 6.67337H108.421ZM108.152 23.3506C109.734 23.3506 111.025 22.8119 112.012 21.7457C113 20.6796 113.494 19.2767 113.494 17.5596C113.494 15.8425 113 14.406 112.012 13.3286C111.025 12.2287 109.745 11.69 108.152 11.69C106.558 11.69 105.279 12.2287 104.291 13.2949C103.326 14.3611 102.854 15.7752 102.854 17.5259C102.854 19.2767 103.337 20.6796 104.291 21.757C105.256 22.8231 106.535 23.3618 108.152 23.3618V23.3506Z" fill="black"/>
<path d="M144.918 6.98761V28.0418H139.116V25.6177C137.612 27.447 135.423 28.356 132.573 28.356C130.597 28.356 128.813 27.9071 127.197 27.0205C125.614 26.1339 124.369 24.8657 123.46 23.2272C122.55 21.5886 122.102 19.6807 122.102 17.5147C122.102 15.3487 122.55 13.4408 123.46 11.8022C124.369 10.1637 125.614 8.89551 127.197 8.0089C128.802 7.12229 130.597 6.67337 132.573 6.67337C135.244 6.67337 137.342 7.52631 138.846 9.22097V6.98761H144.918ZM133.628 23.3506C135.154 23.3506 136.433 22.8344 137.443 21.7906C138.453 20.7245 138.958 19.2992 138.958 17.5259C138.958 15.7527 138.453 14.3386 137.443 13.2949C136.433 12.2287 135.154 11.69 133.628 11.69C132.101 11.69 130.788 12.2287 129.767 13.2949C128.757 14.3386 128.252 15.7527 128.252 17.5259C128.252 19.2992 128.757 20.7245 129.767 21.7906C130.777 22.8344 132.068 23.3506 133.628 23.3506Z" fill="black"/>
<path d="M172.032 6.98763V24.5178C172.032 28.3785 171.033 31.2516 169.036 33.1258C167.038 35 164.12 35.9428 160.271 35.9428C158.25 35.9428 156.32 35.6959 154.502 35.202C152.684 34.7082 151.18 33.99 149.979 33.0472L152.392 28.6591C153.279 29.3886 154.39 29.9609 155.737 30.3762C157.083 30.8251 158.441 31.0383 159.788 31.0383C161.887 31.0383 163.435 30.5558 164.423 29.5906C165.433 28.6479 165.938 27.2113 165.938 25.281V24.3832C164.356 26.1339 162.145 27.0093 159.317 27.0093C157.398 27.0093 155.624 26.5941 154.019 25.7524C152.437 24.8882 151.18 23.6873 150.237 22.1498C149.306 20.6123 148.834 18.839 148.834 16.8301C148.834 14.8212 149.306 13.048 150.237 11.5105C151.169 9.97293 152.426 8.7833 154.019 7.95281C155.624 7.08864 157.398 6.66217 159.317 6.66217C162.358 6.66217 164.67 7.67223 166.252 9.68114V6.97641H172.021L172.032 6.98763ZM160.54 22.0151C162.145 22.0151 163.458 21.5438 164.468 20.601C165.512 19.6359 166.028 18.3789 166.028 16.8414C166.028 15.3038 165.512 14.0581 164.468 13.1266C163.458 12.1614 162.145 11.6788 160.54 11.6788C158.935 11.6788 157.611 12.1614 156.567 13.1266C155.523 14.0693 155.007 15.3038 155.007 16.8414C155.007 18.3789 155.523 19.6359 156.567 20.601C157.611 21.5438 158.935 22.0151 160.54 22.0151Z" fill="black"/>
<path d="M198.563 6.98761V28.0418H192.761V25.5728C191.987 26.4818 191.022 27.1776 189.877 27.649C188.766 28.1204 187.565 28.356 186.297 28.356C183.547 28.356 181.347 27.5592 179.72 25.9656C178.115 24.3719 177.307 22.0151 177.307 18.8839V6.98761H183.379V17.9861C183.379 21.3754 184.793 23.07 187.621 23.07C189.102 23.07 190.281 22.5987 191.167 21.656C192.054 20.6908 192.492 19.2655 192.492 17.3913V6.98761H198.563Z" fill="black"/>
<path d="M227.956 23.0364V32.6656H222.311V28.0418H204.354V6.98761H210.392V23.0364H218.843V6.98761H224.914V23.0364H227.956Z" fill="black"/>
<path d="M252.455 6.98761V28.0418H246.653V25.5728C245.879 26.4818 244.914 27.1776 243.769 27.649C242.658 28.1204 241.457 28.356 240.189 28.356C237.439 28.356 235.239 27.5592 233.612 25.9656C231.996 24.3719 231.199 22.0151 231.199 18.8839V6.98761H237.271V17.9861C237.271 21.3754 238.685 23.07 241.513 23.07C242.994 23.07 244.173 22.5987 245.06 21.656C245.946 20.6908 246.384 19.2655 246.384 17.3913V6.98761H252.455Z" fill="black"/>
<path d="M276.866 6.98761V28.0418H271.456V22.0151H266.978L263.005 28.0418H256.541L261.333 21.1509C259.885 20.5786 258.763 19.7593 257.989 18.6819C257.237 17.582 256.855 16.269 256.855 14.7314C256.855 12.2512 257.742 10.3433 259.504 9.01896C261.3 7.66098 263.746 6.98761 266.866 6.98761H276.877H276.866ZM266.978 11.9594C265.676 11.9594 264.689 12.195 264.015 12.6664C263.365 13.1378 263.039 13.8897 263.039 14.9334C263.039 15.9772 263.353 16.7515 263.971 17.2454C264.622 17.7167 265.598 17.9524 266.889 17.9524H271.445V11.9594H266.967H266.978Z" fill="black"/>
<path d="M94.0218 8.31191C91.6874 6.95393 89.1847 6.07855 86.5024 5.68574V28.0418H80.1951V5.69697C77.5241 6.08977 74.9989 6.96516 72.6421 8.32313L70.4985 3.58706C72.3728 2.46477 74.3929 1.61183 76.5701 1.03946C78.7474 0.467089 80.992 0.175293 83.3039 0.175293C85.6158 0.175293 87.8941 0.467089 90.0825 1.03946C92.2934 1.61183 94.3136 2.46477 96.1541 3.58706L94.0105 8.32313L94.0218 8.31191Z" fill="black"/>
<path d="M51.7672 17.7055L46.7955 22.6436C46.6047 22.8344 46.5822 23.1149 46.7281 23.3394C48.8829 26.6277 50.1287 30.567 50.1287 34.7868C50.1287 39.0066 48.9278 42.7775 46.8628 46.0321C46.7169 46.2566 46.7506 46.5372 46.9414 46.728L51.9468 51.6436C52.1937 51.8905 52.6089 51.8568 52.811 51.5763C56.1778 46.829 58.1531 41.0492 58.1531 34.798C58.1531 28.5468 56.1105 22.5762 52.6426 17.7953C52.4406 17.5147 52.0366 17.4923 51.7897 17.7279L51.7672 17.7055Z" fill="#2F80ED"/>
<path d="M46.2568 58.1977C40.6453 62.339 33.5075 64.4938 25.876 63.6745C12.487 62.238 1.66813 51.4864 0.186703 38.0975C-0.655016 30.5781 1.39878 23.575 5.34925 17.9972C5.55126 17.7166 5.95528 17.683 6.20219 17.9299L11.2076 22.8455C11.3984 23.0251 11.4208 23.3169 11.2862 23.5413C9.22115 26.796 8.0203 30.6567 8.0203 34.7867C8.0203 45.0669 15.4162 53.63 25.1577 55.4705C26.4259 55.7062 27.739 55.8409 29.0633 55.8409C30.4661 55.8409 31.8353 55.695 33.1709 55.4256C35.8756 54.8982 38.3895 53.8432 40.6116 52.373C40.8361 52.2271 41.1167 52.2496 41.3075 52.4403L46.3129 57.356C46.5598 57.6029 46.5374 58.0069 46.2568 58.2089V58.1977Z" fill="#2F80ED"/>
<path d="M40.4094 17.0545C38.1312 15.5843 35.5499 14.5518 32.7778 14.058L32.8452 21.2631L32.8901 25.135L32.9574 32.9798L33.0023 36.313L33.0696 44.3374L33.1145 48.2318C31.8351 48.6134 30.4771 48.8266 29.0743 48.8266C27.6714 48.8266 26.3583 48.6246 25.0901 48.2542L25.0452 44.2027L24.9779 36.3804L24.933 33.0135L24.8657 25.034L24.8208 21.409L24.7534 14.1927C22.1273 14.7314 19.6807 15.7751 17.5147 17.2116C17.2902 17.3575 17.0096 17.3351 16.8188 17.1443L11.8134 12.2287C11.5665 11.9818 11.589 11.5777 11.8695 11.3757C16.6954 7.81805 22.6323 5.73059 29.063 5.73059C35.4938 5.73059 41.2511 7.76194 46.0209 11.2074C46.3014 11.4094 46.3239 11.8246 46.0882 12.0715L41.1052 17.0096C40.9144 17.1892 40.6339 17.2229 40.4094 17.077V17.0545Z" fill="#2F80ED"/>
</svg>
