<svg width="277" height="78" viewBox="0 0 277 78" fill="none" xmlns="http://www.w3.org/2000/svg">
<path d="M88.9781 63.6102H85.8443V71.5525H79.8005V50.522H85.8443V58.6881H89.0901L94.7981 50.522H101.29L94.0146 60.5898L101.849 71.5525H94.6862L88.9781 63.6102Z" fill="black"/>
<path d="M124.681 50.522V71.5525H118.637V55.5559H112.034L111.81 59.2475C111.698 62.0441 111.474 64.2814 111.027 66.0712C110.579 67.861 109.908 69.3153 109.012 70.322C108.117 71.3288 106.886 72 105.207 72C104.311 72 103.304 71.8881 102.073 71.5525L102.409 66.5186C102.856 66.5186 103.08 66.6305 103.304 66.6305C104.2 66.6305 104.871 66.2949 105.319 65.6237C105.766 64.9525 106.102 64.0576 106.214 63.0508C106.326 62.0441 106.438 60.5898 106.55 58.9119L106.886 50.522H124.681Z" fill="black"/>
<path d="M150.088 50.522V71.5525H144.268V69.0915C143.484 69.9864 142.477 70.6576 141.358 71.1051C140.238 71.5525 139.007 71.7763 137.776 71.7763C135.09 71.7763 132.852 70.9932 131.173 69.4271C129.606 67.861 128.71 65.5119 128.71 62.3797V50.522H134.754V61.4847C134.754 64.8407 136.209 66.5186 139.007 66.5186C140.462 66.5186 141.693 66.0712 142.589 65.0644C143.484 64.0576 143.932 62.7153 143.932 60.8136V50.4102L150.088 50.522Z" fill="black"/>
<path d="M176.165 71.5525V59.0237L169.898 69.539H167.324L161.28 58.9119V71.5525H155.796V50.6339H162.175L168.891 62.7153L176.054 50.6339H181.762L181.874 71.6644L176.165 71.5525Z" fill="black"/>
<path d="M208.623 50.522V71.5525H202.803V69.0915C201.348 70.8814 199.11 71.7763 196.311 71.7763C194.297 71.7763 192.506 71.3288 190.939 70.4339C189.372 69.539 188.141 68.3085 187.246 66.6305C186.35 64.9526 185.903 63.0509 185.903 60.9254C185.903 58.8 186.35 56.8983 187.246 55.2203C188.141 53.5424 189.372 52.3119 190.939 51.417C192.506 50.522 194.297 50.0746 196.311 50.0746C198.998 50.0746 201.012 50.9695 202.579 52.6475V50.4102H208.623V50.522ZM197.319 66.8542C198.886 66.8542 200.117 66.2949 201.124 65.2881C202.131 64.1695 202.691 62.8271 202.691 61.0373C202.691 59.2475 202.243 57.9051 201.124 56.7864C200.117 55.6678 198.886 55.2203 197.319 55.2203C195.752 55.2203 194.521 55.7797 193.513 56.7864C192.506 57.7932 191.946 59.2475 191.946 61.0373C191.946 62.8271 192.394 64.1695 193.513 65.2881C194.521 66.4068 195.752 66.8542 197.319 66.8542Z" fill="black"/>
<path d="M241.08 50.2983C243.654 50.2983 245.781 51.0814 247.348 52.6475C248.915 54.2136 249.698 56.4509 249.698 59.5831V71.5525H243.654V60.478C243.654 58.8 243.319 57.5695 242.647 56.7864C241.976 56.0034 240.968 55.5559 239.737 55.5559C238.282 55.5559 237.163 56.0034 236.38 57.0102C235.596 57.9051 235.148 59.2475 235.148 61.1492V71.6644H229.105V60.5898C229.105 57.2339 227.762 55.6678 225.187 55.6678C223.732 55.6678 222.725 56.1153 221.83 57.122C221.046 58.017 220.598 59.3593 220.598 61.261V71.7763H214.555V50.6339H220.375V52.9831C221.158 52.0881 222.053 51.417 223.173 50.9695C224.292 50.522 225.523 50.2983 226.866 50.2983C228.321 50.2983 229.664 50.6339 230.895 51.1932C232.126 51.7525 233.022 52.6475 233.805 53.7661C234.701 52.6475 235.708 51.8644 237.051 51.1932C238.058 50.6339 239.513 50.2983 241.08 50.2983Z" fill="black"/>
<path d="M276 50.522V71.5525H270.18V69.0915C268.725 70.8814 266.487 71.7763 263.689 71.7763C261.674 71.7763 259.883 71.3288 258.316 70.4339C256.749 69.539 255.518 68.3085 254.623 66.6305C253.727 64.9526 253.28 63.0509 253.28 60.9254C253.28 58.8 253.727 56.8983 254.623 55.2203C255.518 53.5424 256.749 52.3119 258.316 51.417C259.883 50.522 261.674 50.0746 263.689 50.0746C266.375 50.0746 268.389 50.9695 269.956 52.6475V50.4102H276V50.522ZM264.696 66.8542C266.263 66.8542 267.494 66.2949 268.501 65.2881C269.508 64.1695 270.068 62.8271 270.068 61.0373C270.068 59.2475 269.62 57.9051 268.501 56.7864C267.494 55.6678 266.263 55.2203 264.696 55.2203C263.129 55.2203 261.898 55.7797 260.89 56.7864C259.883 57.7932 259.324 59.2475 259.324 61.0373C259.324 62.8271 259.771 64.1695 260.89 65.2881C261.786 66.4068 263.129 66.8542 264.696 66.8542Z" fill="black"/>
<path d="M106.662 12.4881C108.9 12.4881 110.803 12.9356 112.482 13.8305C114.161 14.7254 115.392 15.9559 116.287 17.6339C117.182 19.3119 117.63 21.2136 117.63 23.339C117.63 25.4644 117.182 27.3661 116.287 29.0441C115.392 30.6102 114.272 31.9525 112.706 32.8475C111.139 33.7424 109.348 34.1898 107.333 34.1898C104.647 34.1898 102.521 33.2949 101.066 31.6169V41.461H95.1338V23.339C95.1338 21.2136 95.5815 19.3119 96.5888 17.6339C97.5961 16.0678 98.9391 14.7254 100.618 13.8305C102.409 12.9356 104.423 12.4881 106.662 12.4881ZM106.438 29.0441C108.005 29.0441 109.348 28.4847 110.243 27.478C111.251 26.3593 111.698 25.0169 111.698 23.339C111.698 21.661 111.251 20.2068 110.243 19.0881C109.236 17.9695 108.005 17.4102 106.438 17.4102C104.871 17.4102 103.528 17.9695 102.633 18.9763C101.625 19.983 101.178 21.4373 101.178 23.2271C101.178 25.0169 101.625 26.3593 102.633 27.478C103.528 28.5966 104.871 29.1559 106.438 29.0441Z" fill="black"/>
<path d="M143.148 12.8237V33.8542H137.328V31.3932C135.873 33.183 133.635 34.078 130.837 34.078C128.822 34.078 127.144 33.6305 125.465 32.7356C123.898 31.8407 122.667 30.6102 121.771 28.9322C120.876 27.2542 120.428 25.3525 120.428 23.2271C120.428 21.1017 120.876 19.2 121.771 17.522C122.667 15.8441 123.898 14.6136 125.465 13.7186C127.032 12.8237 128.822 12.3763 130.837 12.3763C133.523 12.3763 135.65 13.2712 137.105 14.9491V12.7119C136.993 12.8237 143.148 12.8237 143.148 12.8237ZM131.844 29.0441C133.411 29.0441 134.642 28.4847 135.65 27.478C136.657 26.3593 137.105 25.0169 137.105 23.2271C137.105 21.4373 136.657 20.0949 135.65 18.9763C134.642 17.9695 133.411 17.4102 131.844 17.4102C130.277 17.4102 129.046 17.9695 128.039 18.9763C127.032 19.983 126.584 21.4373 126.584 23.2271C126.584 25.0169 127.032 26.4712 128.039 27.478C129.046 28.5966 130.277 29.0441 131.844 29.0441Z" fill="black"/>
<path d="M170.122 12.8237V30.2746C170.122 34.078 169.114 36.9864 167.1 38.8881C165.085 40.7898 162.175 41.6847 158.37 41.6847C156.355 41.6847 154.453 41.461 152.662 40.9017C150.871 40.3424 149.304 39.6712 148.185 38.7763L150.535 34.4135C151.431 35.0847 152.55 35.7559 153.893 36.0915C155.236 36.539 156.579 36.7627 157.922 36.7627C160.049 36.7627 161.616 36.3152 162.511 35.3085C163.518 34.4136 164.078 32.9593 164.078 31.0576V30.1627C162.511 31.9525 160.272 32.7356 157.474 32.7356C155.572 32.7356 153.781 32.2881 152.214 31.5051C150.647 30.6102 149.416 29.4915 148.409 27.9254C147.513 26.3593 146.954 24.5695 146.954 22.6678C146.954 20.7661 147.401 18.8644 148.409 17.4102C149.416 15.9559 150.535 14.7254 152.214 13.8305C153.781 12.9356 155.572 12.4881 157.474 12.4881C160.496 12.4881 162.847 13.4949 164.414 15.5085V12.8237H170.122ZM158.706 27.8136C160.272 27.8136 161.616 27.3661 162.623 26.3593C163.63 25.3525 164.19 24.122 164.19 22.5559C164.19 20.9898 163.63 19.7593 162.623 18.8644C161.616 17.8576 160.272 17.4102 158.706 17.4102C157.139 17.4102 155.796 17.8576 154.788 18.8644C153.781 19.7593 153.221 20.9898 153.221 22.5559C153.221 24.122 153.781 25.3525 154.788 26.3593C155.796 27.2542 157.027 27.8136 158.706 27.8136Z" fill="black"/>
<path d="M196.647 12.8237V33.8542H190.827V31.3932C190.044 32.2881 189.036 32.9593 187.917 33.5186C186.798 33.9661 185.567 34.1898 184.336 34.1898C181.65 34.1898 179.411 33.4068 177.732 31.8407C176.165 30.2746 175.382 27.9254 175.382 24.7932V12.8237H181.426V23.7864C181.426 27.1424 182.881 28.8203 185.679 28.8203C187.134 28.8203 188.365 28.3729 189.26 27.3661C190.156 26.3593 190.603 25.017 190.603 23.1153V12.8237H196.647Z" fill="black"/>
<path d="M225.859 28.8203V38.4407H220.263V33.8542H202.355V12.8237H208.399V28.8203H216.793V12.8237H222.837V28.8203H225.859Z" fill="black"/>
<path d="M250.37 12.8237V33.8542H244.55V31.3932C243.766 32.2881 242.759 32.9593 241.64 33.5186C240.521 33.9661 239.29 34.1898 238.058 34.1898C235.372 34.1898 233.134 33.4068 231.455 31.8407C229.888 30.2746 229.105 27.9254 229.105 24.7932V12.8237H235.148V23.7864C235.148 27.1424 236.603 28.8203 239.401 28.8203C240.856 28.8203 242.088 28.3729 242.983 27.3661C243.878 26.3593 244.326 25.017 244.326 23.1153V12.8237H250.37Z" fill="black"/>
<path d="M276 12.8237V33.8542H270.18V31.3932C269.397 32.2881 268.389 32.9593 267.27 33.5186C266.151 33.9661 264.92 34.1898 263.689 34.1898C261.002 34.1898 258.764 33.4068 257.085 31.8407C255.518 30.2746 254.735 27.9254 254.735 24.7932V12.8237H260.779V23.7864C260.779 27.1424 262.234 28.8203 265.032 28.8203C266.487 28.8203 267.718 28.3729 268.613 27.3661C269.508 26.3593 269.956 25.017 269.956 23.1153V12.8237H276Z" fill="black"/>
<path d="M93.4549 14.1661C91.1046 12.8237 88.6423 11.9288 85.9562 11.5932V33.8542H79.6885V11.4814C77.0024 11.8169 74.5401 12.7119 72.1897 14.0542L69.9513 9.35593C71.854 8.23729 73.8686 7.45424 76.107 6.89492C78.3455 6.33559 80.472 6 82.8223 6C85.1727 6 87.4111 6.33559 89.5377 6.89492C91.7761 7.45424 93.7907 8.23729 95.5815 9.35593L93.4549 14.1661Z" fill="black"/>
<path d="M51.5961 23.4508L46.6715 28.3729C46.4477 28.5966 46.4477 28.8203 46.5596 29.0441C48.6861 32.2881 49.9173 36.2034 49.9173 40.4542C49.9173 44.7051 48.6861 48.3966 46.6715 51.6407C46.5596 51.8644 46.5596 52.2 46.7834 52.3119L51.8199 57.2339C52.0438 57.4576 52.4915 57.4576 52.7153 57.122C56.073 52.4237 58.0876 46.6068 58.0876 40.3424C58.0876 34.078 55.9611 28.3729 52.4915 23.5627C52.2676 23.2271 51.9319 23.2271 51.5961 23.4508Z" fill="#2F80ED"/>
<path d="M46.1119 63.8339C40.5158 67.9729 33.3527 70.0983 25.742 69.3152C12.4233 67.861 1.67879 57.122 0.223799 43.8102C-0.671578 36.3152 1.45494 29.3797 5.37222 23.7864C5.59606 23.4508 5.93183 23.4508 6.26759 23.6746L11.3041 28.5966C11.5279 28.8203 11.5279 29.0441 11.416 29.2678C9.40141 32.5119 8.17027 36.3152 8.17027 40.4542C8.17027 50.7458 15.5571 59.2475 25.2944 61.0373C26.5255 61.261 27.8686 61.3729 29.2116 61.3729C30.6666 61.3729 32.0097 61.261 33.3527 60.9254C36.0389 60.3661 38.5012 59.3593 40.7396 57.9051C40.9635 57.7932 41.2992 57.7932 41.4111 58.0169L46.4476 62.939C46.4476 63.2746 46.4476 63.6102 46.1119 63.8339Z" fill="#2F80ED"/>
<path d="M40.2919 22.7797C38.0534 21.3254 35.4792 20.3186 32.6812 19.7593L32.7931 26.9186V30.8339L32.905 38.6644V42.0203L33.0169 50.0746V53.9898C31.7858 54.3254 30.3308 54.5491 28.9877 54.5491C27.6447 54.5491 26.3016 54.3254 25.0705 53.9898V49.9627L24.9585 42.1322V38.7763L24.8466 30.8339V27.2542L24.7347 20.0949C22.1605 20.6542 19.6982 21.661 17.5717 23.1152C17.3478 23.2271 17.124 23.2271 16.9001 23.0034L11.8636 18.0814C11.6398 17.8576 11.6398 17.4102 11.9756 17.1864C16.7882 13.6068 22.7201 11.5932 29.0997 11.5932C35.4792 11.5932 41.1872 13.6068 45.888 16.9627C46.2237 17.1864 46.2237 17.6339 45.9999 17.8576L40.9634 22.7797C40.8515 23.0034 40.5157 23.0034 40.2919 22.7797Z" fill="#2F80ED"/>
</svg>
