<svg width="277" height="78" viewBox="0 0 277 78" fill="none" xmlns="http://www.w3.org/2000/svg">
<path fill-rule="evenodd" clip-rule="evenodd" d="M6.5 9.75C6.5 7.95507 7.95507 6.5 9.75 6.5H16.25C18.0449 6.5 19.5 7.95507 19.5 9.75V16.25C19.5 18.0449 18.0449 19.5 16.25 19.5H9.75C7.95507 19.5 6.5 18.0449 6.5 16.25V9.75Z" fill="#2F80ED"/>
<path fill-rule="evenodd" clip-rule="evenodd" d="M6.5 35.75C6.5 33.9551 7.95507 32.5 9.75 32.5H16.25C18.0449 32.5 19.5 33.9551 19.5 35.75V42.25C19.5 44.0449 18.0449 45.5 16.25 45.5H9.75C7.95507 45.5 6.5 44.0449 6.5 42.25V35.75Z" fill="#2F80ED"/>
<path fill-rule="evenodd" clip-rule="evenodd" d="M58.5 9.75C58.5 7.95507 59.9551 6.5 61.75 6.5H68.25C70.0449 6.5 71.5 7.95507 71.5 9.75V16.25C71.5 18.0449 70.0449 19.5 68.25 19.5H61.75C59.9551 19.5 58.5 18.0449 58.5 16.25V9.75Z" fill="#2F80ED"/>
<path fill-rule="evenodd" clip-rule="evenodd" d="M58.5 48.75C58.5 46.9551 59.9551 45.5 61.75 45.5H68.25C70.0449 45.5 71.5 46.9551 71.5 48.75V55.25C71.5 57.0449 70.0449 58.5 68.25 58.5H61.75C59.9551 58.5 58.5 57.0449 58.5 55.25V48.75Z" fill="#2F80ED"/>
<path fill-rule="evenodd" clip-rule="evenodd" d="M32.5 32.5H45.5V45.5H32.5V32.5Z" fill="#2F80ED"/>
<path fill-rule="evenodd" clip-rule="evenodd" d="M32.5 19.5H45.5V32.5H32.5V19.5Z" fill="#2F80ED"/>
<path fill-rule="evenodd" clip-rule="evenodd" d="M19.5 22.75C19.5 20.9551 20.9551 19.5 22.75 19.5H32.5V32.5H22.75C20.9551 32.5 19.5 31.0449 19.5 29.25V22.75Z" fill="#2F80ED"/>
<path fill-rule="evenodd" clip-rule="evenodd" d="M32.5 9.75C32.5 7.95507 33.9551 6.5 35.75 6.5H42.25C44.0449 6.5 45.5 7.95507 45.5 9.75V19.5H32.5V9.75Z" fill="#2F80ED"/>
<path fill-rule="evenodd" clip-rule="evenodd" d="M45.5 32.5H58.5V42.25C58.5 44.0449 57.0449 45.5 55.25 45.5H45.5V32.5Z" fill="#2F80ED"/>
<path fill-rule="evenodd" clip-rule="evenodd" d="M45.5 19.5H55.25C57.0449 19.5 58.5 20.9551 58.5 22.75V32.5H45.5V19.5Z" fill="#2F80ED"/>
<path fill-rule="evenodd" clip-rule="evenodd" d="M45.5 61.75C45.5 59.9551 46.9551 58.5 48.75 58.5H55.25C57.0449 58.5 58.5 59.9551 58.5 61.75V68.25C58.5 70.0449 57.0449 71.5 55.25 71.5H48.75C46.9551 71.5 45.5 70.0449 45.5 68.25V61.75Z" fill="#2F80ED"/>
<path fill-rule="evenodd" clip-rule="evenodd" d="M32.5 45.5H45.5V55.25C45.5 57.0449 44.0449 58.5 42.25 58.5H32.5V45.5Z" fill="#2F80ED"/>
<path fill-rule="evenodd" clip-rule="evenodd" d="M19.5 48.75C19.5 46.9551 20.9551 45.5 22.75 45.5H32.5V58.5H19.5V48.75Z" fill="#2F80ED"/>
<path fill-rule="evenodd" clip-rule="evenodd" d="M19.5 58.5H32.5V68.25C32.5 70.0449 31.0449 71.5 29.25 71.5H22.75C20.9551 71.5 19.5 70.0449 19.5 68.25V58.5Z" fill="#2F80ED"/>
<path d="M108.937 61.0018H106.126V68.1164H100.712V49.3536H106.126V56.6425H109.041L114.107 49.3536H119.868L113.344 58.3513L120.319 68.1164H113.934L108.937 61.0018Z" fill="black"/>
<path d="M140.883 49.3536V68.1164H135.47V53.8176H129.57L129.397 57.1307C129.304 59.5952 129.073 61.6412 128.703 63.2687C128.333 64.8962 127.731 66.175 126.898 67.105C126.065 68.035 124.909 68.5 123.428 68.5C122.642 68.5 121.705 68.3605 120.617 68.0815L120.895 63.6175C121.265 63.664 121.531 63.6872 121.693 63.6872C122.503 63.6872 123.104 63.3966 123.497 62.8153C123.914 62.2108 124.192 61.4552 124.33 60.5485C124.469 59.6185 124.573 58.3978 124.643 56.8866L124.92 49.3536H140.883Z" fill="black"/>
<path d="M164.515 49.3536V68.1164H159.345V65.9192C158.651 66.733 157.795 67.3491 156.777 67.7676C155.782 68.1861 154.718 68.3954 153.584 68.3954C151.132 68.3954 149.177 67.6862 147.72 66.268C146.285 64.8497 145.568 62.7456 145.568 59.9556V49.3536H150.982V59.1535C150.982 62.176 152.242 63.6872 154.764 63.6872C156.083 63.6872 157.135 63.2687 157.922 62.4317C158.709 61.5715 159.102 60.3043 159.102 58.6303V49.3536H164.515Z" fill="black"/>
<path d="M187.893 68.1164V56.8866L182.306 66.3029H180.016L174.568 56.8517V68.1164H169.675V49.3536H175.331L181.3 60.1997L187.65 49.3536H192.717L192.786 68.1164H187.893Z" fill="black"/>
<path d="M216.815 49.3536V68.1164H211.644V65.9541C210.302 67.5816 208.359 68.3954 205.814 68.3954C204.056 68.3954 202.46 68.0001 201.025 67.2096C199.614 66.4191 198.504 65.2915 197.694 63.8267C196.884 62.362 196.479 60.6647 196.479 58.735C196.479 56.8052 196.884 55.1079 197.694 53.6432C198.504 52.1784 199.614 51.0508 201.025 50.2603C202.46 49.4698 204.056 49.0746 205.814 49.0746C208.197 49.0746 210.059 49.8302 211.401 51.3414V49.3536H216.815ZM206.751 63.9314C208.116 63.9314 209.25 63.4664 210.152 62.5364C211.054 61.5831 211.505 60.316 211.505 58.735C211.505 57.154 211.054 55.8985 210.152 54.9684C209.25 54.0152 208.116 53.5386 206.751 53.5386C205.363 53.5386 204.218 54.0152 203.316 54.9684C202.413 55.8985 201.962 57.154 201.962 58.735C201.962 60.316 202.413 61.5831 203.316 62.5364C204.218 63.4664 205.363 63.9314 206.751 63.9314Z" fill="black"/>
<path d="M245.805 49.0746C248.142 49.0746 249.993 49.7721 251.357 51.1671C252.746 52.5388 253.44 54.6081 253.44 57.3748V68.1164H248.026V58.2118C248.026 56.7238 247.714 55.6194 247.089 54.8987C246.488 54.1547 245.62 53.7827 244.487 53.7827C243.214 53.7827 242.208 54.2012 241.468 55.0382C240.727 55.852 240.357 57.0726 240.357 58.7001V68.1164H234.944V58.2118C234.944 55.2591 233.764 53.7827 231.404 53.7827C230.155 53.7827 229.16 54.2012 228.42 55.0382C227.679 55.852 227.309 57.0726 227.309 58.7001V68.1164H221.896V49.3536H227.066V51.5158C227.76 50.7253 228.605 50.1208 229.6 49.7023C230.618 49.2838 231.728 49.0746 232.931 49.0746C234.25 49.0746 235.441 49.3419 236.505 49.8767C237.569 50.3882 238.425 51.1438 239.073 52.1436C239.837 51.1671 240.797 50.4114 241.953 49.8767C243.133 49.3419 244.417 49.0746 245.805 49.0746Z" fill="black"/>
<path d="M277 49.3536V68.1164H271.829V65.9541C270.488 67.5816 268.544 68.3954 266 68.3954C264.241 68.3954 262.645 68.0001 261.211 67.2096C259.8 66.4191 258.689 65.2915 257.879 63.8267C257.07 62.362 256.665 60.6647 256.665 58.735C256.665 56.8052 257.07 55.1079 257.879 53.6432C258.689 52.1784 259.8 51.0508 261.211 50.2603C262.645 49.4698 264.241 49.0746 266 49.0746C268.382 49.0746 270.245 49.8302 271.587 51.3414V49.3536H277ZM266.937 63.9314C268.301 63.9314 269.435 63.4664 270.337 62.5364C271.24 61.5831 271.691 60.316 271.691 58.735C271.691 57.154 271.24 55.8985 270.337 54.9684C269.435 54.0152 268.301 53.5386 266.937 53.5386C265.548 53.5386 264.403 54.0152 263.501 54.9684C262.599 55.8985 262.148 57.154 262.148 58.735C262.148 60.316 262.599 61.5831 263.501 62.5364C264.403 63.4664 265.548 63.9314 266.937 63.9314Z" fill="black"/>
<path d="M126.794 15.2893C128.783 15.2893 130.518 15.6845 131.999 16.475C133.479 17.2655 134.625 18.3932 135.434 19.8579C136.244 21.3227 136.649 23.0315 136.649 24.9846C136.649 26.8911 136.267 28.5767 135.504 30.0415C134.74 31.483 133.665 32.6106 132.276 33.4243C130.888 34.2148 129.292 34.6101 127.488 34.6101C125.105 34.6101 123.242 33.8545 121.901 32.3432V41.0969H116.487V25.0194C116.487 23.0897 116.915 21.3924 117.771 19.9277C118.627 18.4629 119.83 17.3237 121.38 16.5099C122.93 15.6961 124.735 15.2893 126.794 15.2893ZM126.551 30.1461C127.962 30.1461 129.107 29.6694 129.986 28.7162C130.865 27.7629 131.305 26.5191 131.305 24.9846C131.305 23.4268 130.865 22.1713 129.986 21.218C129.107 20.2415 127.962 19.7533 126.551 19.7533C125.139 19.7533 123.994 20.2299 123.115 21.1832C122.259 22.1364 121.831 23.3919 121.831 24.9497C121.831 26.5074 122.259 27.7629 123.115 28.7162C123.971 29.6694 125.116 30.1461 126.551 30.1461Z" fill="black"/>
<path d="M159.306 15.5683V34.3311H154.136V32.1688C152.794 33.7963 150.851 34.6101 148.306 34.6101C146.548 34.6101 144.951 34.2148 143.517 33.4243C142.106 32.6338 140.995 31.5062 140.186 30.0415C139.376 28.5767 138.971 26.8794 138.971 24.9497C138.971 23.0199 139.376 21.3227 140.186 19.8579C140.995 18.3932 142.106 17.2655 143.517 16.475C144.951 15.6845 146.548 15.2893 148.306 15.2893C150.689 15.2893 152.551 16.0449 153.893 17.5562V15.5683H159.306ZM149.243 30.1461C150.608 30.1461 151.741 29.6811 152.644 28.7511C153.546 27.7978 153.997 26.5307 153.997 24.9497C153.997 23.3687 153.546 22.1132 152.644 21.1832C151.741 20.2299 150.608 19.7533 149.243 19.7533C147.855 19.7533 146.71 20.2299 145.807 21.1832C144.905 22.1132 144.454 23.3687 144.454 24.9497C144.454 26.5307 144.905 27.7978 145.807 28.7511C146.71 29.6811 147.855 30.1461 149.243 30.1461Z" fill="black"/>
<path d="M183.473 15.5683V31.1923C183.473 34.6333 182.583 37.1909 180.801 38.8649C179.02 40.5389 176.417 41.3759 172.994 41.3759C171.189 41.3759 169.477 41.155 167.858 40.7132C166.238 40.2715 164.897 39.6321 163.832 38.7951L165.984 34.8891C166.77 35.5401 167.765 36.0516 168.968 36.4236C170.171 36.8188 171.374 37.0165 172.577 37.0165C174.451 37.0165 175.827 36.5864 176.707 35.7261C177.609 34.8891 178.06 33.6103 178.06 31.8898V31.0877C176.649 32.6455 174.682 33.4243 172.161 33.4243C170.449 33.4243 168.876 33.0523 167.441 32.3083C166.03 31.5411 164.908 30.4716 164.075 29.0998C163.242 27.7281 162.826 26.1471 162.826 24.3568C162.826 22.5665 163.242 20.9855 164.075 19.6138C164.908 18.242 166.03 17.1842 167.441 16.4402C168.876 15.6729 170.449 15.2893 172.161 15.2893C174.867 15.2893 176.926 16.1844 178.338 17.9747V15.5683H183.473ZM173.236 28.9603C174.671 28.9603 175.839 28.5418 176.741 27.7048C177.667 26.8446 178.129 25.7286 178.129 24.3568C178.129 22.985 177.667 21.8807 176.741 21.0437C175.839 20.1834 174.671 19.7533 173.236 19.7533C171.802 19.7533 170.622 20.1834 169.697 21.0437C168.772 21.8807 168.309 22.985 168.309 24.3568C168.309 25.7286 168.772 26.8446 169.697 27.7048C170.622 28.5418 171.802 28.9603 173.236 28.9603Z" fill="black"/>
<path d="M207.113 15.5683V34.3311H201.942V32.134C201.248 32.9477 200.392 33.5638 199.374 33.9823C198.38 34.4008 197.315 34.6101 196.182 34.6101C193.73 34.6101 191.775 33.901 190.317 32.4827C188.883 31.0645 188.166 28.9603 188.166 26.1703V15.5683H193.579V25.3682C193.579 28.3907 194.84 29.902 197.362 29.902C198.68 29.902 199.733 29.4834 200.519 28.6464C201.306 27.7862 201.699 26.5191 201.699 24.8451V15.5683H207.113Z" fill="black"/>
<path d="M233.302 29.8671V38.4464H228.27V34.3311H212.272V15.5683H217.651V29.8671H225.181V15.5683H230.595V29.8671H233.302Z" fill="black"/>
<path d="M255.132 15.5683V34.3311H249.962V32.134C249.268 32.9477 248.412 33.5638 247.394 33.9823C246.399 34.4008 245.335 34.6101 244.201 34.6101C241.749 34.6101 239.794 33.901 238.337 32.4827C236.902 31.0645 236.185 28.9603 236.185 26.1703V15.5683H241.599V25.3682C241.599 28.3907 242.86 29.902 245.381 29.902C246.7 29.902 247.752 29.4834 248.539 28.6464C249.326 27.7862 249.719 26.5191 249.719 24.8451V15.5683H255.132Z" fill="black"/>
<path d="M276.879 15.5683V34.3311H272.056V28.9603H268.065L264.526 34.3311H258.765L263.033 28.1931C261.738 27.6816 260.743 26.9492 260.049 25.9959C259.378 25.0194 259.043 23.8453 259.043 22.4735C259.043 20.2648 259.829 18.5675 261.402 17.3818C262.999 16.1728 265.185 15.5683 267.961 15.5683H276.879ZM268.065 19.9974C266.908 19.9974 266.029 20.2067 265.428 20.6252C264.849 21.0437 264.56 21.7179 264.56 22.6479C264.56 23.5779 264.838 24.2638 265.393 24.7056C265.971 25.1241 266.839 25.3333 267.996 25.3333H272.056V19.9974H268.065Z" fill="black"/>
<path d="M113.96 16.754C111.878 15.545 109.645 14.7661 107.262 14.4174V34.3311H101.641V14.4174C99.2578 14.7661 97.0138 15.545 94.9086 16.754L93 12.5341C94.6657 11.5344 96.4702 10.7788 98.4134 10.2673C100.357 9.75575 102.358 9.5 104.417 9.5C106.499 9.5 108.512 9.75575 110.455 10.2673C112.421 10.7788 114.226 11.5344 115.868 12.5341L113.96 16.754Z" fill="black"/>
</svg>
